# xmcd
#
# Track frame offsets:
#	150
#	17839
#	33539
#	47642
#	59384
#	79920
#	98419
#	112330
#	126450
#	140931
#	150077
#	167897
#	183040
#
# Disc length: 2717 seconds
#
# Revision: 0
# Processed by: cddbd v1.5.2PL0 Copyright (c) Steve Scherf et al.
# Submitted via: EZCDAudioConverter 8.2.2.1
#
DISCID=ae0a9b0d
DTITLE=Barbara Diab - Mojo Woman
DYEAR=2019
DGENRE=Blues
TTITLE0=Early In The Morning
TTITLE1=Got My Mojo Working
TTITLE2=I Ain't Got You
TTITLE3=I Wanna Cook In Your Kitchen
TTITLE4=Mama's Blues
TTITLE5=Richland Woman Blues
TTITLE6=Santa Claus Is Back In Town
TTITLE7=Shovelin' Man
TTITLE8=The Bigger They Come, The Harder They Fall
TTITLE9=Woman Of Your Dream
TTITLE10=Walk If You Can't Run
TTITLE11=Wild Woman Don't Have The Blues
TTITLE12=Sweet Home Chicago
EXTD=
EXTT0=
EXTT1=
EXTT2=
EXTT3=
EXTT4=
EXTT5=
EXTT6=
EXTT7=
EXTT8=
EXTT9=
EXTT10=
EXTT11=
EXTT12=
PLAYORDER=
